<?xml version="1.0" standalone="no"?>
<!DOCTYPE svg PUBLIC "-//W3C//DTD SVG 20010904//EN"
 "http://www.w3.org/TR/2001/REC-SVG-20010904/DTD/svg10.dtd">
<svg version="1.0" xmlns="http://www.w3.org/2000/svg"
 width="225.000000pt" height="225.000000pt" viewBox="0 0 225.000000 225.000000"
 preserveAspectRatio="xMidYMid meet">
<metadata>
Created by potrace 1.14, written by Peter Selinger 2001-2017
</metadata>
<g transform="translate(0.000000,225.000000) scale(0.100000,-0.100000)"
fill="#000000" stroke="none">
<path d="M902 2160 c-10 -8 -18 -24 -20 -35 -6 -38 -10 -42 -57 -54 -115 -29
-275 -129 -388 -242 -190 -193 -287 -429 -287 -704 0 -99 4 -136 24 -234 20
-94 82 -228 159 -344 40 -61 51 -85 49 -111 -4 -43 21 -67 38 -36 15 28 32 15
26 -20 -3 -21 2 -34 20 -51 13 -12 24 -20 24 -16 0 4 15 -9 33 -28 19 -22 43
-36 60 -37 15 -1 27 -6 27 -11 0 -4 8 -3 18 2 15 8 18 5 17 -17 0 -20 5 -28
22 -30 19 -3 22 0 16 15 -6 16 -5 16 10 4 9 -7 17 -19 17 -26 0 -19 39 -41
106 -61 103 -31 118 -33 125 -22 3 5 20 11 37 14 24 4 32 1 37 -16 4 -13 16
-20 33 -21 67 -3 101 13 81 37 -9 11 -8 14 5 14 8 0 23 -11 32 -25 19 -29 64
-35 64 -9 0 13 3 14 14 5 12 -10 13 -8 9 8 -3 12 -10 18 -17 14 -7 -4 -6 -1 1
9 7 8 9 18 5 22 -4 4 -2 7 3 6 6 -1 19 -2 30 0 l20 1 -20 9 c-19 8 -18 9 4 9
23 1 65 -35 56 -49 -2 -4 6 -12 20 -18 20 -9 26 -8 40 15 10 14 12 22 6 19 -7
-4 -11 1 -11 13 0 29 14 26 41 -9 22 -27 25 -28 46 -14 13 8 23 12 23 9 0 -4
14 3 30 15 17 12 28 25 25 29 -9 15 33 43 54 36 22 -7 66 3 57 12 -3 4 0 13 7
21 9 13 9 14 0 8 -7 -4 -13 -2 -13 3 0 6 7 11 15 11 8 0 15 -4 15 -9 0 -5 9
-7 20 -4 17 5 19 12 16 64 -4 62 -5 62 46 27 l26 -18 42 39 c23 22 39 44 35
50 -3 6 0 14 8 17 9 3 12 14 9 30 -3 17 8 43 37 88 123 188 174 354 173 566 0
202 -59 392 -172 561 -55 81 -177 203 -257 258 -70 47 -205 116 -247 127 -15
3 -30 13 -33 20 -3 8 -10 11 -16 7 -6 -4 -8 2 -5 15 4 16 2 19 -10 15 -11 -5
-14 -2 -9 9 3 10 -1 19 -11 24 -9 4 -109 8 -220 9 -171 1 -207 -2 -220 -15z"/>
<path d="M1735 359 c-4 -6 -5 -12 -2 -15 2 -3 7 2 10 11 7 17 1 20 -8 4z"/>
</g>
</svg>
